<svg width="602" height="280" viewBox="0 0 602 280" fill="none" xmlns="http://www.w3.org/2000/svg">
<g opacity="0.2">
<rect x="173.649" y="144.319" width="85.9043" height="123.702" rx="3" fill="#1E1E1E"/>
<rect x="372.947" y="144.319" width="85.9043" height="123.702" rx="3" fill="#1E1E1E"/>
<rect x="472.596" y="195.861" width="85.9043" height="72.1596" rx="3" fill="#1E1E1E"/>
<rect x="273.298" y="54.9787" width="85.9043" height="213.043" rx="3" fill="#1E1E1E"/>
<rect x="74" width="85.9043" height="268.021" rx="3" fill="#1E1E1E"/>
</g>
<path d="M104 174.28C121.28 174.28 135.744 164.04 135.744 148.168C135.744 121.8 96.192 124.232 96.192 107.336C96.192 100.552 101.44 95.816 109.248 95.816C118.848 95.816 125.76 102.472 129.216 114.632L132.928 114.248L131.008 95.816C125.504 91.592 117.952 89.032 109.504 89.032C93.504 89.032 79.808 99.272 79.808 114.248C79.808 141.128 118.464 137.416 118.464 155.336C118.464 162.76 112.96 167.112 104.128 167.112C93.888 167.112 84.16 159.56 79.808 144.072L75.968 144.712L77.888 165.832C83.648 170.824 94.272 174.28 104 174.28ZM227.475 168.648L225.683 168.52C220.307 168.264 218.899 166.216 216.851 160.968L200.851 118.856C193.299 99.016 189.459 87.496 189.459 87.496C185.875 90.184 175.635 94.024 171.155 95.176L173.715 102.216L150.547 159.304C147.347 167.24 146.707 168.136 141.075 168.392L139.155 168.52V173C143.379 172.872 147.475 172.744 151.955 172.744C156.563 172.744 161.555 172.872 167.571 173V168.52L163.859 168.392C158.611 168.264 156.691 167.112 156.691 164.424C156.691 163.144 157.203 161.48 157.971 159.304L164.499 142.536H188.435L194.707 159.816C195.475 161.864 195.987 163.528 195.987 164.808C195.987 167.368 193.939 168.392 188.691 168.52L184.851 168.648V173C190.995 172.872 199.699 172.744 207.763 172.744C215.955 172.744 223.507 172.872 227.475 173V168.648ZM166.419 137.416L176.787 110.664L186.515 137.416H166.419ZM310.158 103.624L315.662 158.536C315.79 159.944 315.918 161.224 315.918 162.248C315.918 166.984 314.254 167.88 309.774 168.136L304.398 168.392V173C310.03 172.872 318.094 172.744 326.03 172.744C334.094 172.744 342.03 172.872 347.278 173V168.392L341.902 168.136C337.678 167.88 336.27 166.472 335.502 158.28L330.254 102.856C330.254 96.968 332.046 95.304 336.526 95.048L341.902 94.792V90.312C336.142 90.44 327.694 90.568 320.142 90.568C315.534 90.568 311.31 90.44 308.238 90.312L289.934 141.512L271.886 90.312C268.942 90.44 264.206 90.568 259.214 90.568C251.15 90.568 242.19 90.44 238.222 90.312V94.792L242.83 95.176C246.286 95.432 248.974 96.456 248.974 101.96L242.83 159.048C242.19 165.064 241.166 167.88 236.046 168.136L230.67 168.392V173C235.79 172.872 240.782 172.744 246.158 172.744C251.534 172.744 257.422 172.872 263.95 173V168.264L255.886 167.88C251.406 167.624 250.126 166.216 250.126 162.504C250.126 161.608 250.254 160.456 250.382 159.048L255.758 103.624L281.102 173.128H284.814L310.158 103.624ZM401.858 160.968C386.114 160.968 373.314 149.704 373.314 128.84C373.314 109.256 385.09 96.84 399.17 96.84C406.338 96.84 411.714 99.272 415.554 103.752C418.754 107.592 421.058 113.224 423.234 119.112L426.946 117.704L423.362 95.176C415.554 91.208 407.746 89.032 398.658 89.032C374.21 89.032 352.45 107.592 352.45 133.576C352.45 158.28 370.626 174.28 393.666 174.28C405.57 174.28 416.194 169.16 423.746 160.712L430.274 146.12L426.818 144.328C421.186 154.696 414.402 160.968 401.858 160.968ZM482.006 89.032C458.454 89.032 436.95 107.208 436.95 131.912C436.95 156.616 458.454 174.28 482.006 174.28C505.558 174.28 527.062 156.104 527.062 131.4C527.062 106.696 505.558 89.032 482.006 89.032ZM482.006 167.752C469.078 167.752 459.734 152.52 459.734 131.272C459.734 110.024 469.078 95.56 482.006 95.56C494.934 95.56 504.278 110.792 504.278 132.04C504.278 153.288 494.934 167.752 482.006 167.752Z" fill="white"/>
<path d="M11.77 232.015V255.61C11.77 257.59 14.52 259.075 18.92 259.075C24.035 259.075 26.895 257.205 29.865 249.505L31.405 249.78C30.415 253.74 29.425 258.58 29.095 261C23.925 260.945 18.755 260.89 13.97 260.89C9.24 260.89 5.005 260.945 1.65 261V259.295L4.015 259.13C6.435 258.965 6.655 258.58 6.655 254.455V232.015C6.655 227.89 6.435 227.505 4.015 227.34L1.65 227.175V225.47C3.96 225.525 6.6 225.58 9.185 225.58C11.825 225.58 14.465 225.525 16.775 225.47V227.175L14.41 227.34C11.99 227.505 11.77 227.89 11.77 232.015ZM39.7066 229.815C37.8916 229.815 36.5166 228.44 36.5166 226.625C36.5166 224.81 37.8916 223.38 39.7066 223.38C41.5216 223.38 42.9516 224.81 42.9516 226.625C42.9516 228.44 41.5216 229.815 39.7066 229.815ZM45.5916 259.295V261C43.9416 260.945 41.7966 260.89 39.6516 260.89C37.5066 260.89 35.3616 260.945 33.6566 261V259.295L34.9766 259.24C36.9016 259.13 37.2316 259.02 37.2316 257.315V243.235C37.2316 242.135 37.2316 241.42 35.8566 240.595L34.0966 239.495V238.78C36.5716 238.01 39.3766 236.745 41.7416 235.425H42.2916C42.1816 237.24 42.0166 240.32 42.0166 250.495V257.315C42.0166 259.02 42.3466 259.13 44.2716 259.24L45.5916 259.295ZM75.9335 259.295V261C74.2835 260.945 72.1385 260.89 69.9935 260.89C67.8485 260.89 65.7035 260.945 63.9985 261V259.295L65.3185 259.24C67.2435 259.13 67.5735 259.02 67.5735 257.315V245.16C67.5735 241.255 65.6485 239.22 61.9085 239.22C60.0385 239.22 58.2235 239.77 56.5185 240.76V257.315C56.5185 259.02 56.8485 259.13 58.7735 259.24L60.0935 259.295V261C58.4435 260.945 56.2985 260.89 54.1535 260.89C52.0085 260.89 49.8635 260.945 48.1585 261V259.295L49.4785 259.24C51.4035 259.13 51.7335 259.02 51.7335 257.315V243.235C51.7335 242.135 51.7335 241.42 50.3585 240.595L48.5985 239.495V238.78C51.0735 238.01 53.8785 236.745 56.2435 235.425H56.7935L56.5185 239.77C58.6635 237.955 62.5685 235.7 65.8135 235.7C70.5985 235.7 72.3585 239 72.3585 243.345V257.315C72.3585 259.02 72.6885 259.13 74.6135 259.24L75.9335 259.295ZM100.349 254.565C98.7542 258.525 94.9592 261.55 90.4492 261.55C83.6292 261.55 78.6242 256.71 78.6242 249.175C78.6242 241.365 84.8392 235.7 91.0542 235.7C96.4992 235.7 99.9642 239.33 99.9642 243.73C99.9642 244.775 99.2492 245.6 97.8742 245.6H83.4092C83.3542 246.315 83.2992 247.03 83.2992 247.855C83.2992 253.905 87.5342 257.755 92.3192 257.755C95.6742 257.755 97.7642 256.27 99.5792 254.07L100.349 254.565ZM90.3392 237.735C87.3142 237.735 84.7292 239.88 83.7392 243.95L93.6942 243.73C94.6292 243.73 94.9042 243.18 94.9042 242.245C94.9042 239.715 93.2542 237.735 90.3392 237.735ZM145.238 250.275C144.908 251.87 143.753 258.58 143.478 261C137.483 260.945 131.928 260.89 127.088 260.89C122.193 260.89 118.013 260.945 114.658 261V259.295L117.023 259.13C119.443 258.965 119.663 258.58 119.663 254.455V232.015C119.663 227.89 119.553 227.615 117.023 227.395L114.218 227.175V225.47H130.938C138.803 225.47 141.388 224.975 141.388 224.975C141.718 229.1 141.883 231.52 142.323 234.655L141.113 234.93C139.463 229.265 137.868 227.45 130.883 227.45C128.958 227.45 126.758 227.56 124.888 227.78C124.723 231.465 124.668 234.93 124.668 240.21V241.805L131.928 241.695C133.743 241.64 134.073 240.54 134.293 237.845L134.403 236.36H136.053C135.998 238.725 135.888 240.705 135.888 242.685C135.888 244.665 135.998 246.645 136.053 249.065H134.403L134.293 247.58C134.073 244.885 133.743 243.73 131.928 243.675L124.668 243.565V254.84C124.668 258.415 128.628 259.075 132.478 259.075C138.363 259.075 141.553 257.48 143.808 250L145.238 250.275ZM156.689 236.69L168.404 236.415V234.71C168.404 224.315 176.379 218.925 183.144 218.925C186.609 218.925 189.854 220.74 189.854 222.665C189.854 224.095 188.644 224.92 187.489 224.92C184.959 224.92 183.419 221.455 180.339 221.455C177.149 221.455 173.189 224.26 173.189 233.94V236.69L186.719 236.415C187.544 236.415 188.754 235.81 189.414 235.425H189.964C189.854 237.24 189.689 240.32 189.689 250.495V257.315C189.689 259.02 190.019 259.13 191.944 259.24L193.264 259.295V261C191.614 260.945 189.469 260.89 187.324 260.89C185.179 260.89 183.034 260.945 181.329 261V259.295L182.649 259.24C184.574 259.13 184.904 259.02 184.904 257.315V241.585C184.904 240.485 184.134 239.11 182.044 239.11L173.189 239.055V256.985C173.189 258.855 173.849 259.02 175.554 259.13L178.249 259.295V261C175.774 260.945 173.244 260.89 170.934 260.89C168.624 260.89 166.534 260.945 164.829 261V259.295L166.149 259.24C168.074 259.13 168.404 259.02 168.404 257.315V239.165L156.689 239.055V256.985C156.689 258.855 157.349 259.02 159.054 259.13L161.749 259.295V261C159.274 260.945 156.744 260.89 154.434 260.89C152.124 260.89 150.034 260.945 148.329 261V259.295L149.649 259.24C151.574 259.13 151.904 259.02 151.904 257.315V240.265L148.384 238.615V238.175L151.904 235.535C151.904 227.175 156.359 220.465 162.849 220.465C165.984 220.465 167.579 221.675 167.579 223.6C167.579 225.03 166.369 225.855 165.214 225.855C163.069 225.855 162.849 223.27 160.539 223.27C157.624 223.27 156.689 227.67 156.689 235.645V236.69ZM196.415 249.725C196.415 241.805 202.575 235.7 209.67 235.7C214.07 235.7 217.205 237.735 217.205 240.155C217.205 241.805 216.27 242.685 214.84 242.685C211.54 242.685 212.365 237.735 209.065 237.735C205.71 237.735 201.2 241.09 201.2 247.635C201.2 253.74 205.765 257.92 210.11 257.92C212.915 257.92 215.005 256.71 216.71 254.51L217.48 255.06C215.995 258.91 212.2 261.55 208.075 261.55C201.97 261.55 196.415 256.875 196.415 249.725ZM226.298 229.815C224.483 229.815 223.108 228.44 223.108 226.625C223.108 224.81 224.483 223.38 226.298 223.38C228.113 223.38 229.543 224.81 229.543 226.625C229.543 228.44 228.113 229.815 226.298 229.815ZM232.183 259.295V261C230.533 260.945 228.388 260.89 226.243 260.89C224.098 260.89 221.953 260.945 220.248 261V259.295L221.568 259.24C223.493 259.13 223.823 259.02 223.823 257.315V243.235C223.823 242.135 223.823 241.42 222.448 240.595L220.688 239.495V238.78C223.163 238.01 225.968 236.745 228.333 235.425H228.883C228.773 237.24 228.608 240.32 228.608 250.495V257.315C228.608 259.02 228.938 259.13 230.863 259.24L232.183 259.295ZM256.97 254.565C255.375 258.525 251.58 261.55 247.07 261.55C240.25 261.55 235.245 256.71 235.245 249.175C235.245 241.365 241.46 235.7 247.675 235.7C253.12 235.7 256.585 239.33 256.585 243.73C256.585 244.775 255.87 245.6 254.495 245.6H240.03C239.975 246.315 239.92 247.03 239.92 247.855C239.92 253.905 244.155 257.755 248.94 257.755C252.295 257.755 254.385 256.27 256.2 254.07L256.97 254.565ZM246.96 237.735C243.935 237.735 241.35 239.88 240.36 243.95L250.315 243.73C251.25 243.73 251.525 243.18 251.525 242.245C251.525 239.715 249.875 237.735 246.96 237.735ZM287.823 259.295V261C286.173 260.945 284.028 260.89 281.883 260.89C279.738 260.89 277.593 260.945 275.888 261V259.295L277.208 259.24C279.133 259.13 279.463 259.02 279.463 257.315V245.16C279.463 241.255 277.538 239.22 273.798 239.22C271.928 239.22 270.113 239.77 268.408 240.76V257.315C268.408 259.02 268.738 259.13 270.663 259.24L271.983 259.295V261C270.333 260.945 268.188 260.89 266.043 260.89C263.898 260.89 261.753 260.945 260.048 261V259.295L261.368 259.24C263.293 259.13 263.623 259.02 263.623 257.315V243.235C263.623 242.135 263.623 241.42 262.248 240.595L260.488 239.495V238.78C262.963 238.01 265.768 236.745 268.133 235.425H268.683L268.408 239.77C270.553 237.955 274.458 235.7 277.703 235.7C282.488 235.7 284.248 239 284.248 243.345V257.315C284.248 259.02 284.578 259.13 286.503 259.24L287.823 259.295ZM290.624 249.725C290.624 241.805 296.784 235.7 303.879 235.7C308.279 235.7 311.414 237.735 311.414 240.155C311.414 241.805 310.479 242.685 309.049 242.685C305.749 242.685 306.574 237.735 303.274 237.735C299.919 237.735 295.409 241.09 295.409 247.635C295.409 253.74 299.974 257.92 304.319 257.92C307.124 257.92 309.214 256.71 310.919 254.51L311.689 255.06C310.204 258.91 306.409 261.55 302.284 261.55C296.179 261.55 290.624 256.875 290.624 249.725ZM326.887 262.21L322.597 273.54C322.322 274.255 321.552 274.53 320.672 274.53C319.187 274.53 318.087 273.76 317.702 273.1C321.167 267.82 323.587 263.475 324.907 260.285L316.052 239.22C315.722 238.45 315.337 238.175 314.512 238.01L313.247 237.9V236.25C314.402 236.305 316.492 236.36 318.802 236.36C321.112 236.36 323.642 236.305 325.677 236.25V238.01L322.762 238.285C321.717 238.395 321.332 238.56 321.332 239C321.332 239.22 321.442 239.55 321.552 239.825L327.437 255.665L333.817 239.825C333.927 239.55 334.037 239.275 334.037 239.055C334.037 238.615 333.652 238.395 332.607 238.285L329.802 238.01V236.25C332.057 236.305 334.037 236.36 335.687 236.36C337.337 236.36 338.712 236.305 339.757 236.25V237.9L338.492 238.01C337.557 238.175 337.227 238.45 336.897 239.22L326.887 262.21ZM352.211 227.175V225.47C353.036 225.525 354.136 225.525 355.346 225.525C359.526 225.525 365.466 225.36 368.326 225.36C380.756 225.36 389.446 231.575 389.446 242.19C389.446 253.575 380.591 261 369.151 261H352.651V259.295L355.016 259.13C357.436 258.965 357.656 258.58 357.656 254.455V232.015C357.656 227.89 357.546 227.615 355.016 227.395L352.211 227.175ZM362.771 228.055V255.445C362.771 257.425 365.191 258.965 369.591 258.965C378.226 258.965 383.561 252.145 383.561 243.29C383.561 232.95 377.731 227.725 368.161 227.725C367.006 227.725 364.641 227.835 362.771 228.055ZM393.262 255.83C393.262 252.64 396.067 250.55 399.477 249.56L406.462 247.525L406.517 243.07C406.517 240.595 404.537 238.78 401.292 238.78C399.477 238.78 398.542 239.77 398.542 241.365C398.542 242.08 398.597 243.015 398.707 243.51C397.607 243.895 396.342 244.17 394.912 244.17C394.362 244.17 394.032 244.005 394.032 243.455C394.032 240.485 400.742 235.7 404.592 235.7C407.727 235.7 411.192 237.02 411.192 242.795L410.917 255.17C410.917 256.93 412.072 258.085 413.612 258.085C414.327 258.085 414.932 258.03 415.647 257.645L415.867 257.975C415.207 259.955 413.337 261.44 411.357 261.44C409.157 261.44 407.452 260.01 406.517 258.085C405.142 259.405 402.117 261.385 399.202 261.385C396.012 261.385 393.262 259.02 393.262 255.83ZM406.462 249.23L401.237 250.825C399.037 251.485 398.047 252.475 398.047 254.455C398.047 256.875 399.917 258.25 401.787 258.25C403.602 258.25 405.032 257.755 406.352 257.04L406.462 249.23ZM425.948 261.55C423.033 261.55 419.843 260.45 418.303 258.91L417.752 252.585H419.018C420.228 257.37 422.923 259.405 426.113 259.405C428.643 259.405 431.173 257.975 431.173 255.17C431.173 249.34 418.908 251.1 418.908 243.18C418.908 238.615 422.978 235.7 427.103 235.7C429.798 235.7 432.107 236.47 433.868 238.065L434.363 243.73H433.208C432.218 239.715 430.072 237.845 426.993 237.845C424.738 237.845 422.923 239.055 422.923 241.585C422.923 246.975 435.353 245.49 435.353 253.355C435.353 258.14 430.733 261.55 425.948 261.55ZM466.408 259.295V261C464.758 260.945 462.613 260.89 460.468 260.89C458.323 260.89 456.178 260.945 454.473 261V259.295L455.793 259.24C457.718 259.13 458.048 259.02 458.048 257.315V245.16C458.048 241.255 456.123 239.22 452.383 239.22C450.513 239.22 448.753 239.77 446.993 240.815V257.315C446.993 259.02 447.323 259.13 449.248 259.24L450.568 259.295V261C448.918 260.945 446.773 260.89 444.628 260.89C442.483 260.89 440.338 260.945 438.633 261V259.295L439.953 259.24C441.878 259.13 442.208 259.02 442.208 257.315V226.075C442.208 224.975 442.208 223.985 440.833 223.435L438.578 222.5V221.84C441.108 221.125 444.188 220.19 446.663 218.925H447.213C447.103 220.74 446.993 224.37 446.993 234.545V239.88C449.138 238.01 452.988 235.7 456.288 235.7C461.073 235.7 462.833 239 462.833 243.345V257.315C462.833 259.02 463.163 259.13 465.088 259.24L466.408 259.295ZM475.923 239.825C477.683 238.285 481.423 235.7 484.338 235.7C490.663 235.7 494.898 240.54 494.898 246.975C494.898 256.215 487.803 261.55 481.423 261.55C477.738 261.55 473.778 260.56 471.028 258.525C471.138 255.61 471.138 253.355 471.138 249.945V226.075C471.138 224.975 471.138 223.985 469.763 223.435L467.508 222.5V221.84C470.038 221.125 473.118 220.19 475.593 218.925H476.143C476.033 220.74 475.923 224.37 475.923 234.545V239.825ZM475.923 240.87V254.455C475.923 257.315 478.178 259.46 481.643 259.46C486.428 259.46 490.168 256.27 490.168 248.9C490.168 243.675 486.593 239.22 481.203 239.22C479.003 239.22 477.298 239.825 475.923 240.87ZM511.615 235.7C518.325 235.7 524.21 240.925 524.21 248.515C524.21 256.215 518.325 261.55 511.615 261.55C504.905 261.55 499.02 256.325 499.02 248.735C499.02 241.035 504.905 235.7 511.615 235.7ZM511.615 259.405C516.125 259.405 518.985 255.005 518.985 248.845C518.985 242.465 516.125 237.845 511.615 237.845C507.105 237.845 504.245 242.245 504.245 248.405C504.245 254.785 507.105 259.405 511.615 259.405ZM528.022 255.83C528.022 252.64 530.827 250.55 534.237 249.56L541.222 247.525L541.277 243.07C541.277 240.595 539.297 238.78 536.052 238.78C534.237 238.78 533.302 239.77 533.302 241.365C533.302 242.08 533.357 243.015 533.467 243.51C532.367 243.895 531.102 244.17 529.672 244.17C529.122 244.17 528.792 244.005 528.792 243.455C528.792 240.485 535.502 235.7 539.352 235.7C542.487 235.7 545.952 237.02 545.952 242.795L545.677 255.17C545.677 256.93 546.832 258.085 548.372 258.085C549.087 258.085 549.692 258.03 550.407 257.645L550.627 257.975C549.967 259.955 548.097 261.44 546.117 261.44C543.917 261.44 542.212 260.01 541.277 258.085C539.902 259.405 536.877 261.385 533.962 261.385C530.772 261.385 528.022 259.02 528.022 255.83ZM541.222 249.23L535.997 250.825C533.797 251.485 532.807 252.475 532.807 254.455C532.807 256.875 534.677 258.25 536.547 258.25C538.362 258.25 539.792 257.755 541.112 257.04L541.222 249.23ZM565.548 259.295V261C563.073 260.945 560.543 260.89 558.233 260.89C555.923 260.89 553.833 260.945 552.128 261V259.295L553.448 259.24C555.373 259.13 555.703 259.02 555.703 257.315V243.235C555.703 242.135 555.703 241.42 554.328 240.595L552.568 239.495V238.78C555.043 238.01 557.848 236.745 560.213 235.425H560.763C560.708 236.58 560.543 238.285 560.488 242.025C562.578 239.44 565.988 235.7 568.628 235.7C570.498 235.7 571.708 236.965 571.708 238.725C571.708 240.595 570.443 241.585 569.013 241.585C567.583 241.585 566.868 240.265 565.713 240.265C564.503 240.265 561.698 242.135 560.488 243.565V256.985C560.488 258.855 561.148 259.02 562.853 259.13L565.548 259.295ZM592.125 261.715H591.575L591.74 257.81C589.815 259.35 586.295 261.55 583.71 261.55C577.66 261.55 572.765 256.655 572.765 250.22C572.765 240.98 579.805 235.7 586.185 235.7C588.33 235.7 589.87 236.14 591.74 236.965V226.075C591.74 224.975 591.795 224.095 590.365 223.435L588.11 222.5V221.84C590.64 221.125 593.72 220.19 596.195 218.925H596.745C596.635 220.74 596.525 224.37 596.525 234.545V256.435C596.525 257.59 596.745 257.755 597.79 257.865L600.815 258.085V259.35C598.175 259.845 594.6 261.055 592.125 261.715ZM586.845 258.03C588.825 258.03 590.475 257.535 591.74 256.71V242.575C591.74 241.255 589.1 237.735 585.965 237.735C581.62 237.735 577.495 240.815 577.495 248.185C577.495 253.575 581.455 258.03 586.845 258.03Z" fill="white"/>
<line x1="147.972" y1="191.71" x2="454.967" y2="190" stroke="white" stroke-width="10"/>
</svg>
